<svg width="253" height="102" viewBox="0 0 253 102" fill="none" xmlns="http://www.w3.org/2000/svg">
<path fill-rule="evenodd" clip-rule="evenodd" d="M4.43708 38.43L8.16008 7.93199L2.65208 7.26899V4.10699H18.5641L24.6331 26.037L26.0611 32.004L27.2851 26.037L33.3031 4.10699H49.0621V7.26899L43.5031 7.93199L47.5831 38.379L51.7141 38.94V42H35.4451V38.94L39.9331 38.43L37.6891 16.092L36.7201 6.75899L34.8331 14.613L27.4381 40.419H22.0321L14.4841 15.939L11.8831 6.75899L11.1181 16.092L9.18008 38.43L14.3311 38.94V42H0.153076V38.94L4.43708 38.43ZM53.1931 34.044C53.1931 27.567 60.6901 24.711 69.9211 24.66V23.487C69.9211 19.56 68.9521 17.877 64.5661 17.877C60.6901 17.877 57.5791 19.407 55.9471 20.172L54.3661 16.908C55.5391 15.888 60.6391 13.032 66.4021 13.032C74.2051 13.032 76.7041 15.939 76.7041 23.334V38.94H79.4581V41.796C78.2851 42.102 75.2761 42.561 73.2361 42.561C70.9411 42.561 70.3291 42.102 70.3291 39.96V38.583C69.0031 40.062 65.9941 42.561 61.8121 42.561C57.1711 42.561 53.1931 39.603 53.1931 34.044ZM65.0761 38.328C66.5551 38.328 68.5951 37.308 69.9211 36.135V27.771C63.4951 27.771 60.7921 30.27 60.7921 33.33C60.7921 36.645 62.5261 38.328 65.0761 38.328ZM90.7801 42.459C86.5981 42.459 84.5071 40.674 84.5071 36.288V17.571H81.1921V14.919C82.1611 14.562 83.5381 14.103 84.3031 13.746C84.9151 13.287 85.3741 12.573 85.7821 11.451C86.3431 10.176 87.0571 7.575 87.4651 6.147H91.5451L91.7491 13.644H99.5521V17.571H91.8001V31.902C91.8001 37.359 92.0551 37.767 94.4011 37.767C96.2371 37.767 98.2771 37.257 99.3481 36.798L100.317 39.654C98.5831 40.98 94.4521 42.459 90.7801 42.459ZM105.009 38.532V4.71899L101.133 4.05599V1.30199L110.619 0.179993H110.772L112.098 1.14899L112.149 12.522L111.792 16.959C113.475 15.429 117.351 13.083 121.839 13.083C128.316 13.083 130.05 16.602 130.05 24.456V38.481L133.314 38.94V42H119.901V38.94L122.859 38.481V24.456C122.859 19.509 122.145 17.418 118.422 17.418C116.127 17.418 113.73 18.693 112.251 19.917V38.481L115.362 38.94V42H102.153V38.94L105.009 38.532ZM149.226 42.561C139.893 42.561 135.915 36.492 135.915 27.822C135.915 18.54 141.423 12.93 149.634 12.93C156.519 12.93 160.191 16.704 160.344 23.232C160.344 25.425 160.242 27.006 159.936 28.23H143.361C143.616 34.299 146.268 38.022 151.215 38.022C153.969 38.022 157.131 36.9 158.661 35.778L159.936 38.583C158.304 40.317 153.765 42.561 149.226 42.561ZM143.361 25.17H153.204C153.255 24.456 153.306 23.691 153.306 22.977C153.306 18.948 152.133 16.194 148.767 16.194C145.758 16.194 143.565 18.03 143.361 25.17ZM187.017 42.51C184.773 42.51 183.804 41.541 183.804 39.654V38.277C182.121 40.317 178.5 42.561 174.93 42.561C168.351 42.561 165.852 39.45 165.852 31.698V17.316L163.302 16.602V13.695L171.972 13.032H172.023L173.043 13.746V31.698C173.043 36.594 174.012 38.379 177.378 38.379C180.03 38.379 181.968 36.951 182.988 36.033V17.316L179.571 16.551V13.695L188.802 13.032H188.904L190.128 13.746V38.838H192.984L192.933 41.745C191.709 42 189.618 42.51 187.017 42.51ZM200.685 33.789L201.858 37.818C202.368 38.634 204.612 39.501 206.652 39.501C210.018 39.501 211.446 37.971 211.446 35.88C211.446 33.126 208.131 32.004 203.541 29.964C199.002 28.077 196.554 25.527 196.554 20.988C196.554 16.347 200.889 13.032 207.57 13.032C212.517 13.032 215.22 14.307 216.801 14.562V21.243H212.772L211.599 17.367C211.242 16.704 209.661 16.041 207.774 16.041C205.02 16.041 203.184 17.316 203.184 19.407C203.184 22.467 206.346 23.487 209.712 24.915C214.098 26.751 218.484 28.842 218.484 34.095C218.484 38.889 214.71 42.561 207.009 42.561C202.215 42.561 198.288 41.031 196.452 40.521V33.789H200.685ZM6.01807 84.43V53.932L2.04007 53.269V50.107H9.63907C12.8011 50.107 15.2491 49.75 17.8501 49.75C28.6621 49.75 31.7221 53.065 31.7221 58.369C31.7221 63.469 28.3561 67.039 23.5111 67.753C30.1921 67.702 34.3231 70.966 34.3231 76.576C34.3231 82.951 30.6511 88.306 18.1561 88.306C14.6881 88.306 13.1581 88 9.69007 88H1.98907V84.94L6.01807 84.43ZM13.4131 66.631C14.5351 66.733 16.8811 66.682 18.1051 66.682C22.3381 66.682 24.2761 63.877 24.2761 59.287C24.2761 54.901 22.3891 52.861 17.4421 52.861C16.1671 52.861 14.1781 53.014 13.4131 53.065V66.631ZM13.4131 84.634C14.3311 84.991 16.4221 85.093 17.9011 85.093C23.9191 85.093 26.1121 82.033 26.1121 77.137C26.1121 72.139 23.8171 70.201 18.7681 70.201C17.1871 70.201 14.4841 70.201 13.4131 70.303V84.634ZM37.2811 80.044C37.2811 73.567 44.7781 70.711 54.0091 70.66V69.487C54.0091 65.56 53.0401 63.877 48.6541 63.877C44.7781 63.877 41.6671 65.407 40.0351 66.172L38.4541 62.908C39.6271 61.888 44.7271 59.032 50.4901 59.032C58.2931 59.032 60.7921 61.939 60.7921 69.334V84.94H63.5461V87.796C62.3731 88.102 59.3641 88.561 57.3241 88.561C55.0291 88.561 54.4171 88.102 54.4171 85.96V84.583C53.0911 86.062 50.0821 88.561 45.9001 88.561C41.2591 88.561 37.2811 85.603 37.2811 80.044ZM49.1641 84.328C50.6431 84.328 52.6831 83.308 54.0091 82.135V73.771C47.5831 73.771 44.8801 76.27 44.8801 79.33C44.8801 82.645 46.6141 84.328 49.1641 84.328ZM89.3011 88.51C87.0571 88.51 86.0881 87.541 86.0881 85.654V84.277C84.4051 86.317 80.7841 88.561 77.2141 88.561C70.6351 88.561 68.1361 85.45 68.1361 77.698V63.316L65.5861 62.602V59.695L74.2561 59.032H74.3071L75.3271 59.746V77.698C75.3271 82.594 76.2961 84.379 79.6621 84.379C82.3141 84.379 84.2521 82.951 85.2721 82.033V63.316L81.8551 62.551V59.695L91.0861 59.032H91.1881L92.4121 59.746V84.838H95.2681L95.2171 87.745C93.9931 88 91.9021 88.51 89.3011 88.51ZM98.4811 88V84.94L101.337 84.481V64.489L98.0731 63.571V60.052L106.539 58.981L107.151 59.389L107.916 61.072V63.214C110.16 61.021 115.107 59.083 118.167 59.083C121.89 59.083 124.032 60.307 125.205 62.857C127.296 60.919 131.325 59.083 135.048 59.083C141.168 59.083 143.361 62.449 143.361 70.405V84.481L146.676 84.94V88H133.467V84.94L136.119 84.481V70.609C136.119 65.458 135.201 63.418 131.58 63.418C129.489 63.418 127.296 64.591 125.97 65.611C126.225 66.988 126.327 68.62 126.327 70.456V84.481L129.489 84.94V88H116.178V84.94L118.983 84.481V70.456C118.983 65.407 118.269 63.418 114.75 63.418C112.404 63.418 110.058 64.744 108.63 65.917V84.481L111.639 84.94V88H98.4811ZM162.078 101.77C152.388 101.77 149.124 98.302 149.124 93.814C149.124 90.907 151.368 88.255 153.918 87.082C152.286 86.113 151.572 84.634 151.572 82.696C151.572 80.401 153.204 78.106 155.601 76.984C151.725 75.505 150.042 72.394 150.042 68.518C150.042 62.5 155.958 58.93 162.588 58.93C166.566 58.93 169.524 59.695 171.462 61.225C172.227 60.256 174.522 58.828 176.97 58.828H178.755V64.387H173.502C173.961 65.356 174.267 66.529 174.267 67.855C174.318 74.026 169.626 78.055 161.925 78.055C160.446 78.055 159.069 77.953 157.896 77.698C157.233 78.565 156.825 79.636 156.825 80.401C156.825 82.645 158.253 83.308 162.333 83.308H167.79C174.726 83.308 178.194 85.858 178.194 90.856C178.194 97.435 170.391 101.77 162.078 101.77ZM162.435 74.893C165.801 74.893 167.178 72.394 167.178 68.416C167.178 63.928 165.597 61.99 162.333 61.99C159.222 61.99 157.335 63.979 157.335 68.212C157.335 72.292 158.814 74.893 162.435 74.893ZM162.843 98.251C166.821 98.251 170.748 96.262 170.748 92.386C170.748 89.53 169.575 88.255 165.495 88.255H159.936C159.069 88.255 158.304 88.204 157.59 88.102C156.825 89.122 156.213 90.601 156.213 92.488C156.213 96.007 157.896 98.251 162.843 98.251Z" fill="#F7F7F7"/>
<path fill-rule="evenodd" clip-rule="evenodd" d="M180.183 79.84C180.183 73.618 187.221 70.558 196.758 70.507V69.487C196.758 66.019 195.942 64.438 191.709 64.438C187.833 64.438 184.773 65.866 183.141 66.58L181.407 62.908C182.682 61.837 187.731 58.981 193.851 58.981C202.011 58.981 204.561 61.99 204.561 69.487V84.634H207.213V87.847C205.989 88.102 202.572 88.612 200.379 88.612C197.778 88.612 197.166 88 197.166 85.807V84.634C195.84 86.266 192.984 88.561 188.802 88.561C184.11 88.561 180.183 85.399 180.183 79.84Z" fill="#979797"/>
<path fill-rule="evenodd" clip-rule="evenodd" d="M192.78 83.869C194.004 83.869 195.687 83.053 196.758 82.033V73.924C191.097 73.924 188.955 76.321 188.955 79.024C188.955 82.084 190.434 83.869 192.78 83.869Z" fill="black"/>
<path fill-rule="evenodd" clip-rule="evenodd" d="M209.61 88V84.634L212.721 84.175V64.999L209.712 64.081V60.103L218.178 58.981H218.331L219.759 60.052V61.276L219.606 65.509H219.759C220.371 63.418 223.941 58.93 228.888 58.93C229.806 58.93 230.52 59.083 230.928 59.287V68.161C230.112 67.549 228.939 66.835 226.746 66.835C223.992 66.835 222.003 67.753 221.085 68.416V84.175L226.695 84.685V88H209.61Z" fill="#979797"/>
<path fill-rule="evenodd" clip-rule="evenodd" d="M242.25 88.459C237.762 88.459 235.671 86.419 235.671 82.084V63.928H232.56V60.97C233.58 60.562 234.855 60.103 235.722 59.695C236.334 59.134 236.895 58.369 237.354 57.145C237.915 55.819 238.578 53.677 239.037 51.994H243.78L244.086 59.644H251.379V63.928H244.188V77.443C244.188 82.747 244.392 83.155 246.534 83.155C248.319 83.155 250.002 82.747 251.073 82.339L252.144 85.552C250.359 86.98 246.279 88.459 242.25 88.459Z" fill="#979797"/>
</svg>
