<?xml version="1.0" encoding="UTF-8"?>
<svg width="253px" height="102px" viewBox="0 0 253 102" version="1.1" xmlns="http://www.w3.org/2000/svg" xmlns:xlink="http://www.w3.org/1999/xlink">
    <!-- Generator: Sketch 53.1 (72631) - https://sketchapp.com -->
    <title>matheus-baumgart</title>
    <desc>Created with Sketch.</desc>
    <g id="Symbols" stroke="none" stroke-width="1" fill="none" fill-rule="evenodd">
        <g id="Sidebar" transform="translate(-35.000000, -324.000000)">
            <g id="matheus-baumgart">
                <g transform="translate(35.000000, 324.000000)">
                    <path d="M4.437,38.43 L8.16,7.932 L2.652,7.269 L2.652,4.107 L18.564,4.107 L24.633,26.037 L26.061,32.004 L27.285,26.037 L33.303,4.107 L49.062,4.107 L49.062,7.269 L43.503,7.932 L47.583,38.379 L51.714,38.94 L51.714,42 L35.445,42 L35.445,38.94 L39.933,38.43 L37.689,16.092 L36.72,6.759 L34.833,14.613 L27.438,40.419 L22.032,40.419 L14.484,15.939 L11.883,6.759 L11.118,16.092 L9.18,38.43 L14.331,38.94 L14.331,42 L0.153,42 L0.153,38.94 L4.437,38.43 Z M53.193,34.044 C53.193,27.567 60.69,24.711 69.921,24.66 L69.921,23.487 C69.921,19.56 68.952,17.877 64.566,17.877 C60.69,17.877 57.579,19.407 55.947,20.172 L54.366,16.908 C55.539,15.888 60.639,13.032 66.402,13.032 C74.205,13.032 76.704,15.939 76.704,23.334 L76.704,38.94 L79.458,38.94 L79.458,41.796 C78.285,42.102 75.276,42.561 73.236,42.561 C70.941,42.561 70.329,42.102 70.329,39.96 L70.329,38.583 C69.003,40.062 65.994,42.561 61.812,42.561 C57.171,42.561 53.193,39.603 53.193,34.044 Z M65.076,38.328 C66.555,38.328 68.595,37.308 69.921,36.135 L69.921,27.771 C63.495,27.771 60.792,30.27 60.792,33.33 C60.792,36.645 62.526,38.328 65.076,38.328 Z M90.78,42.459 C86.598,42.459 84.507,40.674 84.507,36.288 L84.507,17.571 L81.192,17.571 L81.192,14.919 C82.161,14.562 83.538,14.103 84.303,13.746 C84.915,13.287 85.374,12.573 85.782,11.451 C86.343,10.176 87.057,7.575 87.465,6.147 L91.545,6.147 L91.749,13.644 L99.552,13.644 L99.552,17.571 L91.8,17.571 L91.8,31.902 C91.8,37.359 92.055,37.767 94.401,37.767 C96.237,37.767 98.277,37.257 99.348,36.798 L100.317,39.654 C98.583,40.98 94.452,42.459 90.78,42.459 Z M105.009,38.532 L105.009,4.719 L101.133,4.056 L101.133,1.302 L110.619,0.18 L110.772,0.18 L112.098,1.149 L112.149,12.522 L111.792,16.959 C113.475,15.429 117.351,13.083 121.839,13.083 C128.316,13.083 130.05,16.602 130.05,24.456 L130.05,38.481 L133.314,38.94 L133.314,42 L119.901,42 L119.901,38.94 L122.859,38.481 L122.859,24.456 C122.859,19.509 122.145,17.418 118.422,17.418 C116.127,17.418 113.73,18.693 112.251,19.917 L112.251,38.481 L115.362,38.94 L115.362,42 L102.153,42 L102.153,38.94 L105.009,38.532 Z M149.226,42.561 C139.893,42.561 135.915,36.492 135.915,27.822 C135.915,18.54 141.423,12.93 149.634,12.93 C156.519,12.93 160.191,16.704 160.344,23.232 C160.344,25.425 160.242,27.006 159.936,28.23 L143.361,28.23 C143.616,34.299 146.268,38.022 151.215,38.022 C153.969,38.022 157.131,36.9 158.661,35.778 L159.936,38.583 C158.304,40.317 153.765,42.561 149.226,42.561 Z M143.361,25.17 L153.204,25.17 C153.255,24.456 153.306,23.691 153.306,22.977 C153.306,18.948 152.133,16.194 148.767,16.194 C145.758,16.194 143.565,18.03 143.361,25.17 Z M187.017,42.51 C184.773,42.51 183.804,41.541 183.804,39.654 L183.804,38.277 C182.121,40.317 178.5,42.561 174.93,42.561 C168.351,42.561 165.852,39.45 165.852,31.698 L165.852,17.316 L163.302,16.602 L163.302,13.695 L171.972,13.032 L172.023,13.032 L173.043,13.746 L173.043,31.698 C173.043,36.594 174.012,38.379 177.378,38.379 C180.03,38.379 181.968,36.951 182.988,36.033 L182.988,17.316 L179.571,16.551 L179.571,13.695 L188.802,13.032 L188.904,13.032 L190.128,13.746 L190.128,38.838 L192.984,38.838 L192.933,41.745 C191.709,42 189.618,42.51 187.017,42.51 Z M200.685,33.789 L201.858,37.818 C202.368,38.634 204.612,39.501 206.652,39.501 C210.018,39.501 211.446,37.971 211.446,35.88 C211.446,33.126 208.131,32.004 203.541,29.964 C199.002,28.077 196.554,25.527 196.554,20.988 C196.554,16.347 200.889,13.032 207.57,13.032 C212.517,13.032 215.22,14.307 216.801,14.562 L216.801,21.243 L212.772,21.243 L211.599,17.367 C211.242,16.704 209.661,16.041 207.774,16.041 C205.02,16.041 203.184,17.316 203.184,19.407 C203.184,22.467 206.346,23.487 209.712,24.915 C214.098,26.751 218.484,28.842 218.484,34.095 C218.484,38.889 214.71,42.561 207.009,42.561 C202.215,42.561 198.288,41.031 196.452,40.521 L196.452,33.789 L200.685,33.789 Z M6.018,84.43 L6.018,53.932 L2.04,53.269 L2.04,50.107 L9.639,50.107 C12.801,50.107 15.249,49.75 17.85,49.75 C28.662,49.75 31.722,53.065 31.722,58.369 C31.722,63.469 28.356,67.039 23.511,67.753 C30.192,67.702 34.323,70.966 34.323,76.576 C34.323,82.951 30.651,88.306 18.156,88.306 C14.688,88.306 13.158,88 9.69,88 L1.989,88 L1.989,84.94 L6.018,84.43 Z M13.413,66.631 C14.535,66.733 16.881,66.682 18.105,66.682 C22.338,66.682 24.276,63.877 24.276,59.287 C24.276,54.901 22.389,52.861 17.442,52.861 C16.167,52.861 14.178,53.014 13.413,53.065 L13.413,66.631 Z M13.413,84.634 C14.331,84.991 16.422,85.093 17.901,85.093 C23.919,85.093 26.112,82.033 26.112,77.137 C26.112,72.139 23.817,70.201 18.768,70.201 C17.187,70.201 14.484,70.201 13.413,70.303 L13.413,84.634 Z M37.281,80.044 C37.281,73.567 44.778,70.711 54.009,70.66 L54.009,69.487 C54.009,65.56 53.04,63.877 48.654,63.877 C44.778,63.877 41.667,65.407 40.035,66.172 L38.454,62.908 C39.627,61.888 44.727,59.032 50.49,59.032 C58.293,59.032 60.792,61.939 60.792,69.334 L60.792,84.94 L63.546,84.94 L63.546,87.796 C62.373,88.102 59.364,88.561 57.324,88.561 C55.029,88.561 54.417,88.102 54.417,85.96 L54.417,84.583 C53.091,86.062 50.082,88.561 45.9,88.561 C41.259,88.561 37.281,85.603 37.281,80.044 Z M49.164,84.328 C50.643,84.328 52.683,83.308 54.009,82.135 L54.009,73.771 C47.583,73.771 44.88,76.27 44.88,79.33 C44.88,82.645 46.614,84.328 49.164,84.328 Z M89.301,88.51 C87.057,88.51 86.088,87.541 86.088,85.654 L86.088,84.277 C84.405,86.317 80.784,88.561 77.214,88.561 C70.635,88.561 68.136,85.45 68.136,77.698 L68.136,63.316 L65.586,62.602 L65.586,59.695 L74.256,59.032 L74.307,59.032 L75.327,59.746 L75.327,77.698 C75.327,82.594 76.296,84.379 79.662,84.379 C82.314,84.379 84.252,82.951 85.272,82.033 L85.272,63.316 L81.855,62.551 L81.855,59.695 L91.086,59.032 L91.188,59.032 L92.412,59.746 L92.412,84.838 L95.268,84.838 L95.217,87.745 C93.993,88 91.902,88.51 89.301,88.51 Z M98.481,88 L98.481,84.94 L101.337,84.481 L101.337,64.489 L98.073,63.571 L98.073,60.052 L106.539,58.981 L107.151,59.389 L107.916,61.072 L107.916,63.214 C110.16,61.021 115.107,59.083 118.167,59.083 C121.89,59.083 124.032,60.307 125.205,62.857 C127.296,60.919 131.325,59.083 135.048,59.083 C141.168,59.083 143.361,62.449 143.361,70.405 L143.361,84.481 L146.676,84.94 L146.676,88 L133.467,88 L133.467,84.94 L136.119,84.481 L136.119,70.609 C136.119,65.458 135.201,63.418 131.58,63.418 C129.489,63.418 127.296,64.591 125.97,65.611 C126.225,66.988 126.327,68.62 126.327,70.456 L126.327,84.481 L129.489,84.94 L129.489,88 L116.178,88 L116.178,84.94 L118.983,84.481 L118.983,70.456 C118.983,65.407 118.269,63.418 114.75,63.418 C112.404,63.418 110.058,64.744 108.63,65.917 L108.63,84.481 L111.639,84.94 L111.639,88 L98.481,88 Z M162.078,101.77 C152.388,101.77 149.124,98.302 149.124,93.814 C149.124,90.907 151.368,88.255 153.918,87.082 C152.286,86.113 151.572,84.634 151.572,82.696 C151.572,80.401 153.204,78.106 155.601,76.984 C151.725,75.505 150.042,72.394 150.042,68.518 C150.042,62.5 155.958,58.93 162.588,58.93 C166.566,58.93 169.524,59.695 171.462,61.225 C172.227,60.256 174.522,58.828 176.97,58.828 L178.755,58.828 L178.755,64.387 L173.502,64.387 C173.961,65.356 174.267,66.529 174.267,67.855 C174.318,74.026 169.626,78.055 161.925,78.055 C160.446,78.055 159.069,77.953 157.896,77.698 C157.233,78.565 156.825,79.636 156.825,80.401 C156.825,82.645 158.253,83.308 162.333,83.308 L167.79,83.308 C174.726,83.308 178.194,85.858 178.194,90.856 C178.194,97.435 170.391,101.77 162.078,101.77 Z M162.435,74.893 C165.801,74.893 167.178,72.394 167.178,68.416 C167.178,63.928 165.597,61.99 162.333,61.99 C159.222,61.99 157.335,63.979 157.335,68.212 C157.335,72.292 158.814,74.893 162.435,74.893 Z M162.843,98.251 C166.821,98.251 170.748,96.262 170.748,92.386 C170.748,89.53 169.575,88.255 165.495,88.255 L159.936,88.255 C159.069,88.255 158.304,88.204 157.59,88.102 C156.825,89.122 156.213,90.601 156.213,92.488 C156.213,96.007 157.896,98.251 162.843,98.251 Z" id="Matheus-Baumgart" fill="#000000"></path>
                    <path d="M180.183,79.84 C180.183,73.618 187.221,70.558 196.758,70.507 L196.758,69.487 C196.758,66.019 195.942,64.438 191.709,64.438 C187.833,64.438 184.773,65.866 183.141,66.58 L181.407,62.908 C182.682,61.837 187.731,58.981 193.851,58.981 C202.011,58.981 204.561,61.99 204.561,69.487 L204.561,84.634 L207.213,84.634 L207.213,87.847 C205.989,88.102 202.572,88.612 200.379,88.612 C197.778,88.612 197.166,88 197.166,85.807 L197.166,84.634 C195.84,86.266 192.984,88.561 188.802,88.561 C184.11,88.561 180.183,85.399 180.183,79.84 Z" id="Path" fill="#5B5B5B"></path>
                    <path d="M192.78,83.869 C194.004,83.869 195.687,83.053 196.758,82.033 L196.758,73.924 C191.097,73.924 188.955,76.321 188.955,79.024 C188.955,82.084 190.434,83.869 192.78,83.869 Z" id="Path" fill="#EEEEEE"></path>
                    <path d="M209.61,88 L209.61,84.634 L212.721,84.175 L212.721,64.999 L209.712,64.081 L209.712,60.103 L218.178,58.981 L218.331,58.981 L219.759,60.052 L219.759,61.276 L219.606,65.509 L219.759,65.509 C220.371,63.418 223.941,58.93 228.888,58.93 C229.806,58.93 230.52,59.083 230.928,59.287 L230.928,68.161 C230.112,67.549 228.939,66.835 226.746,66.835 C223.992,66.835 222.003,67.753 221.085,68.416 L221.085,84.175 L226.695,84.685 L226.695,88 L209.61,88 Z" id="Path" fill="#5B5B5B"></path>
                    <path d="M242.25,88.459 C237.762,88.459 235.671,86.419 235.671,82.084 L235.671,63.928 L232.56,63.928 L232.56,60.97 C233.58,60.562 234.855,60.103 235.722,59.695 C236.334,59.134 236.895,58.369 237.354,57.145 C237.915,55.819 238.578,53.677 239.037,51.994 L243.78,51.994 L244.086,59.644 L251.379,59.644 L251.379,63.928 L244.188,63.928 L244.188,77.443 C244.188,82.747 244.392,83.155 246.534,83.155 C248.319,83.155 250.002,82.747 251.073,82.339 L252.144,85.552 C250.359,86.98 246.279,88.459 242.25,88.459 Z" id="Path" fill="#5B5B5B"></path>
                </g>
            </g>
        </g>
    </g>
</svg>